 <svg width="24" height="22" viewBox="0 0 24 22" fill="none" xmlns="http://www.w3.org/2000/svg">
<path d="M11.7062 19.2474H13.7891V5.70881L20.448 8.56233C20.6354 8.64268 20.7952 8.77632 20.9074 8.94664C21.0196 9.11697 21.0793 9.31649 21.0791 9.52044V19.2474H23.1619V21.3303H0.250488V19.2474H2.33335V5.34431C2.33332 5.14281 2.39175 4.94563 2.50155 4.77668C2.61136 4.60772 2.76781 4.47425 2.95196 4.39244L10.9741 0.826587C11.0535 0.791328 11.1404 0.776478 11.2269 0.78339C11.3135 0.790302 11.397 0.818756 11.4697 0.866161C11.5425 0.913567 11.6023 0.978418 11.6436 1.05481C11.6849 1.13121 11.7064 1.21672 11.7062 1.30356V19.2474Z" fill="#3357FA"/>
</svg>
