<svg width="20" height="22" viewBox="0 0 20 22" fill="none" xmlns="http://www.w3.org/2000/svg">
<path d="M14.599 15.2756H2.72485V19.5935H8.12219V21.7524H12.4401V19.5935H14.599C16.0305 19.5935 17.4033 19.0249 18.4155 18.0127C19.4277 17.0005 19.9963 15.6276 19.9963 14.1962C19.9963 12.7647 19.4277 11.3919 18.4155 10.3797C17.4033 9.36748 16.0305 8.79883 14.599 8.79883H5.96326C5.67696 8.79883 5.4024 8.6851 5.19996 8.48266C4.99752 8.28022 4.88379 8.00565 4.88379 7.71936C4.88379 7.43307 4.99752 7.1585 5.19996 6.95606C5.4024 6.75362 5.67696 6.63989 5.96326 6.63989H17.8374V2.32202H12.4401V0.163086H8.12219V2.32202H5.96326C4.53179 2.32202 3.15896 2.89067 2.14676 3.90287C1.13456 4.91506 0.565918 6.2879 0.565918 7.71936C0.565918 9.15082 1.13456 10.5237 2.14676 11.5359C3.15896 12.5481 4.53179 13.1167 5.96326 13.1167H14.599C14.8853 13.1167 15.1599 13.2304 15.3623 13.4329C15.5647 13.6353 15.6785 13.9099 15.6785 14.1962C15.6785 14.4825 15.5647 14.757 15.3623 14.9595C15.1599 15.1619 14.8853 15.2756 14.599 15.2756Z" fill="#3357FA"/>
</svg>
