<svg width="19" height="22" viewBox="0 0 19 22" fill="none" xmlns="http://www.w3.org/2000/svg">
<path d="M14.8339 10.9573C15.1101 10.9573 15.375 11.067 15.5703 11.2623C15.7656 11.4576 15.8753 11.7225 15.8753 11.9987V20.3716C15.8753 20.9238 15.4276 21.3716 14.8753 21.3716H4.37818C3.82589 21.3716 3.37818 20.9238 3.37818 20.3716V11.9987C3.37818 11.7225 3.4879 11.4576 3.6832 11.2623C3.87851 11.067 4.1434 10.9573 4.41961 10.9573H14.8339ZM7.54389 13.0401H5.46104V15.123H7.54389V13.0401ZM9.62675 4.70869C10.7874 4.70834 11.9251 5.03124 12.9125 5.6412C13.9 6.25115 14.698 7.12406 15.2171 8.16207L13.353 9.09415C13.0072 8.40177 12.4753 7.81941 11.8171 7.41238C11.1588 7.00535 10.4002 6.78975 9.62623 6.78975C8.8523 6.78975 8.09366 7.00535 7.4354 7.41238C6.77714 7.81941 6.24529 8.40177 5.89948 9.09415L4.03636 8.16207C4.55554 7.12406 5.35356 6.25115 6.34096 5.6412C7.32837 5.03124 8.46614 4.70834 9.62675 4.70869ZM9.62675 0.542969C11.561 0.542551 13.4572 1.08083 15.1027 2.09748C16.7483 3.11413 18.0782 4.56897 18.9434 6.29895L17.0803 7.23103C16.3881 5.84694 15.3242 4.68296 14.0077 3.86956C12.6913 3.05616 11.1743 2.62549 9.62675 2.62583C8.07926 2.62549 6.56225 3.05616 5.24577 3.86956C3.92928 4.68296 2.86536 5.84694 2.17324 7.23103L0.309082 6.29895C1.17436 4.56881 2.50442 3.11387 4.15017 2.09721C5.79592 1.08055 7.69231 0.542358 9.62675 0.542969Z" fill="#3357FA"/>
</svg>
